<svg width="26" height="21" viewBox="0 0 26 21" fill="none" xmlns="http://www.w3.org/2000/svg">
<path d="M16.287 5.68828H17.0697L19.3006 3.45732L19.41 2.50978C15.2578 -1.15559 8.9208 -0.759629 5.25543 3.39261C4.23701 4.54507 3.49901 5.91785 3.09534 7.4031C3.34339 7.30142 3.61918 7.28447 3.87802 7.35688L8.33995 6.62042C8.33995 6.62042 8.56643 6.24448 8.68507 6.26759C10.6695 4.08747 14.0098 3.83326 16.3024 5.68828H16.287Z" fill="#EA4335"/>
<path d="M22.4794 7.40312C21.9663 5.5142 20.914 3.81633 19.4503 2.51904L16.3196 5.64978C17.6415 6.72983 18.3949 8.35837 18.3626 10.0655V10.6217C19.9017 10.6217 21.1497 11.8697 21.1497 13.4088C21.1497 14.948 19.9017 16.196 18.3626 16.196H12.7883L12.2321 16.7599V20.1033L12.7883 20.6595H18.3626C22.3654 20.6903 25.6363 17.4702 25.6671 13.4674C25.6856 11.0361 24.4885 8.76204 22.4794 7.40312V7.40312Z" fill="#4285F4"/>
<path d="M7.2062 20.624H12.7805V16.1621H7.2062C6.8087 16.1621 6.41736 16.0758 6.05529 15.9109L5.2726 16.1544L3.02624 18.3853L2.83057 19.168C4.08933 20.1201 5.62697 20.6317 7.2062 20.624Z" fill="#34A853"/>
<path d="M7.20607 6.15051C3.20174 6.17362 -0.0229874 9.43841 0.000123449 13.4427C0.0139899 15.6783 1.05706 17.7829 2.83043 19.1449L6.06286 15.9125C4.6608 15.2793 4.03681 13.6276 4.67005 12.2256C5.30328 10.8235 6.95493 10.1995 8.35699 10.8328C8.97482 11.1116 9.46939 11.6077 9.7498 12.2256L12.9822 8.99314C11.6079 7.19358 9.46939 6.14127 7.20607 6.15051V6.15051Z" fill="#FBBC05"/>
</svg>
